<?xml version="1.0" encoding="UTF-8" standalone="no"?>
<!-- Created with Inkscape (http://www.inkscape.org/) -->

<svg
   xmlns:dc="http://purl.org/dc/elements/1.1/"
   xmlns:cc="http://creativecommons.org/ns#"
   xmlns:rdf="http://www.w3.org/1999/02/22-rdf-syntax-ns#"
   xmlns:svg="http://www.w3.org/2000/svg"
   xmlns="http://www.w3.org/2000/svg"
   xmlns:xlink="http://www.w3.org/1999/xlink"
   xmlns:sodipodi="http://sodipodi.sourceforge.net/DTD/sodipodi-0.dtd"
   xmlns:inkscape="http://www.inkscape.org/namespaces/inkscape"
   width="863.9679"
   height="1048.1711"
   id="svg2"
   version="1.1"
   inkscape:version="0.48.5 r10040"
   sodipodi:docname="mascot.svg"
   style="enable-background:new">
  <defs
     id="defs4" />
  <sodipodi:namedview
     id="base"
     pagecolor="#ffffff"
     bordercolor="#666666"
     borderopacity="1.0"
     inkscape:pageopacity="0.0"
     inkscape:pageshadow="2"
     inkscape:zoom="0.5"
     inkscape:cx="605.55719"
     inkscape:cy="519.53289"
     inkscape:document-units="px"
     inkscape:current-layer="layer3"
     showgrid="false"
     inkscape:window-width="1440"
     inkscape:window-height="852"
     inkscape:window-x="0"
     inkscape:window-y="0"
     inkscape:window-maximized="1"
     fit-margin-top="1"
     fit-margin-left="1"
     fit-margin-right="1"
     fit-margin-bottom="1"
     borderlayer="false"
     inkscape:showpageshadow="true" />
  <metadata
     id="metadata7">
    <rdf:RDF>
      <cc:Work
         rdf:about="">
        <dc:format>image/svg+xml</dc:format>
        <dc:type
           rdf:resource="http://purl.org/dc/dcmitype/StillImage" />
        <dc:title></dc:title>
      </cc:Work>
    </rdf:RDF>
  </metadata>
  <g
     inkscape:groupmode="layer"
     id="layer2"
     inkscape:label="Background"
     style="opacity:0.41666667;display:inline"
     sodipodi:insensitive="true"
     transform="translate(-42.101336,-79.462157)">
    <image
       y="-734.81982"
       x="-345.89117"
       id="image3048"
       xlink:href="./sørens_mermaid_gopher.jpg"
       height="2326.5784"
       width="1744.9338" />
  </g>
  <g
     inkscape:groupmode="layer"
     id="layer3"
     inkscape:label="Outline"
     style="display:inline"
     transform="translate(-42.101336,-79.462157)"
     sodipodi:insensitive="true">
    <path
       style="fill:#000000;fill-opacity:1;stroke:none"
       d="M 368.57143,823.07647 C 263.2981,849.62526 194.72011,910.29962 172.14286,941.6479 c -22.57725,31.34828 -43.57747,72.5863 -5,102.1429 38.57747,29.5566 223.21921,57.3424 309.99999,59.9999 86.78078,2.6575 151.66381,-4.3122 202.85715,-27.1428 51.19334,-22.8306 79.40589,-64.4304 42.14286,-137.85715 -37.26303,-73.4267 -248.2981,-142.26307 -353.57143,-115.71428 z"
       id="path3906"
       inkscape:connector-curvature="0"
       sodipodi:nodetypes="zzzzzzz" />
    <path
       style="fill:#ffffff;fill-opacity:1;stroke:#000000;stroke-width:5;stroke-linecap:butt;stroke-linejoin:miter;stroke-miterlimit:4;stroke-opacity:1;stroke-dasharray:none"
       d="m 680.71429,1110.2193 c 8.5109,13.6782 21.5804,19.1237 27.85715,7.8571 6.27674,-11.2667 3.13037,-27.3315 27.14285,-42.1428 24.01248,-14.8112 92.10301,-16.831 107.85714,8.5714 15.75413,25.4023 16.75107,35.1277 35.71429,23.5714 18.96322,-11.5562 19.89078,-22.6187 22.85714,-48.5714 2.96636,-25.9526 -9.38952,-61.10936 -42.85714,-87.14282 -33.46763,-26.03347 -103.02227,-13.87926 -136.42858,7.14286 -33.40631,21.02216 -43.86753,48.62316 -50,71.42856 -6.13247,22.8054 -0.65375,45.6075 7.85715,59.2857 z"
       id="path3931"
       inkscape:connector-curvature="0"
       sodipodi:nodetypes="zzzzzzzzzz" />
    <path
       style="fill:#ffffff;fill-opacity:1;stroke:#000000;stroke-width:5;stroke-linecap:butt;stroke-linejoin:miter;stroke-miterlimit:4;stroke-opacity:1;stroke-dasharray:none"
       d="m 715,981.6479 c 39.04566,14.89852 39.41205,50.537 48.57143,77.8572 9.15939,27.3202 37.95807,23.3648 52.85715,-0.7143 14.89907,-24.0791 28.49764,-62.0873 34.99999,-92.1429 6.50235,-30.0556 7.17904,-51.80129 1.42857,-92.14286 -5.75047,-40.34157 -17.49936,-70.47873 -31.42857,-85 -16.82949,-18.2466 -20.39741,-20.50245 -32.85714,-24.28571 C 772.69369,758.66163 760.16744,749.8696 750,739.50504 742.0286,724.26375 735.84706,707.82922 733.57143,688.79075 731.10938,557.14153 739.45182,426.69281 745,295.93361 c -1.62946,-21.29464 -0.99571,-44.0981 -10.71428,-60 53.62187,-69.08318 87.46096,-106.0515 40.35714,-144.285714 C 721.48661,61.231829 674.78313,117.40371 660,150.21932 572.84754,115.03175 472.86209,68.410475 280,163.79075 236.9699,98.827506 188.33174,75.465916 153.92857,110.93361 c -32.58002,50.17474 11.37459,83.20308 57.85715,129.28572 -8.46598,21.17688 -14.48753,44.79818 -15.35715,73.57142 -5.49954,138.14985 -5.53699,270.21708 -5.71429,402.85715 -0.63538,103.38408 6.12946,144.38317 27.14286,173.57143 27.74053,35.34495 48.07178,50.97385 86.42857,71.42857 38.35679,20.45472 165.87397,29.22019 215,30.71428 C 568.41174,993.85627 675.95434,966.74938 715,981.6479 z"
       id="path3843"
       inkscape:connector-curvature="0"
       sodipodi:nodetypes="zzzzzcccccccccccccczzz" />
    <path
       style="fill:#000000;fill-opacity:1;stroke:none"
       d="m 176.06959,1074.9896 c 12.10006,3.9488 13.61874,3.3865 2.82843,-1.591 -10.79032,-4.9776 -41.0122,-15.5563 -51.6188,-20.8596 -10.6066,-5.3033 -27.22361,-20.1526 -27.22361,-20.8597 0,-0.7071 -5.706102,-6.9462 0,-11.6673 5.7061,-4.721 10.32047,-6.0734 15.73313,-9.3691 5.41266,-3.2957 2.66869,-7.6944 -3.35876,-4.5962 -6.02745,3.0982 -11.02083,4.7578 -16.793787,10.2531 -5.772956,5.4952 -6.932018,10.1851 1.06066,19.7989 7.992677,9.6138 11.695047,11.9877 26.693287,20.3294 14.99824,8.3416 40.5794,14.6128 52.67945,18.5615 z"
       id="path4251"
       inkscape:connector-curvature="0"
       sodipodi:nodetypes="zzzzzzzzzzz" />
    <path
       style="fill:#000000;fill-opacity:1;stroke:none"
       d="m 73.715882,1044.0537 c -6.560282,-3.402 -14.068876,-5.5376 -19.445436,-9.3692 -5.376561,-3.8316 -5.016281,-4.7077 -3.358758,-7.7781 1.657523,-3.0705 4.435963,-3.8917 10.429825,-6.8943 5.993862,-3.0027 1.076199,-7.2749 -3.889087,-4.0659 -4.965286,3.2089 -7.36206,3.656 -11.313708,7.6014 -3.951649,3.9453 -5.125157,9.1305 3.18198,13.9653 8.307136,4.8347 14.558234,6.6784 23.334524,9.1925 8.776289,2.514 7.620942,0.7502 1.06066,-2.6517 z"
       id="path4253"
       inkscape:connector-curvature="0"
       sodipodi:nodetypes="zzzzzzzzz" />
  </g>
  <g
     inkscape:label="Layer 1"
     inkscape:groupmode="layer"
     id="layer1"
     style="display:inline"
     transform="translate(-42.101336,-79.462157)"
     sodipodi:insensitive="true">
    <path
       style="fill:#000000;stroke:#000000;stroke-width:1px;stroke-linecap:butt;stroke-linejoin:miter;stroke-opacity:1"
       d="m 259.2304,185.65129 c -8.14764,10.45601 -18.22064,18.73411 -28.03173,27.52666 -12.69503,-11.42236 -24.18506,-21.68432 -36.3655,-35.98668 -12.18044,-14.30236 14.48148,-37.90039 31.31473,-23.73858 16.83325,14.16181 26.18548,23.53098 33.0825,32.1986 z"
       id="path3847"
       inkscape:connector-curvature="0"
       sodipodi:nodetypes="cczzc" />
    <path
       style="fill:#000000;stroke:#000000;stroke-width:1px;stroke-linecap:butt;stroke-linejoin:miter;stroke-opacity:1"
       d="m 710.31307,199.10802 c -10.66679,-7.86966 -16.70712,-15.75703 -25.75481,-25.33334 11.08433,-12.99123 18.71893,-22.78304 32.69579,-35.33564 13.97688,-12.55261 36.43189,9.25989 22.71798,26.45999 -13.71393,17.2001 -21.17584,27.08626 -29.65896,34.20899 z"
       id="path3847-8"
       inkscape:connector-curvature="0"
       sodipodi:nodetypes="cczzc" />
    <path
       style="fill:none;stroke:#000000;stroke-width:3;stroke-linecap:butt;stroke-linejoin:miter;stroke-miterlimit:4;stroke-opacity:1;stroke-dasharray:none"
       d="m 402.14286,332.36218 c 0.40811,-29.8537 -12.66794,-51.51984 -39.28572,-67.14286 -26.61778,-15.62302 -46.81748,-12.57117 -68.57143,-1.42857 -21.75395,11.1426 -40.7776,30.72284 -43.57142,63.57143 -2.79383,32.8486 7.02443,47.72524 27.14285,60 20.11842,12.27476 38.83951,21.60953 73.57143,9.28572 34.73192,-12.32381 50.30618,-34.43202 50.71429,-64.28572 z"
       id="path3871"
       inkscape:connector-curvature="0"
       sodipodi:nodetypes="zzzzzzz" />
    <path
       style="fill:none;stroke:#000000;stroke-width:3;stroke-linecap:butt;stroke-linejoin:miter;stroke-miterlimit:4;stroke-opacity:1;stroke-dasharray:none"
       d="m 547.14286,328.79076 c 0.35714,-17.85715 6.33986,-45.08459 35.71429,-61.42858 29.37442,-16.34399 51.72336,-11.69618 69.28571,-3.57143 17.56235,8.12475 30.00313,34.83055 34.28571,58.57143 4.28258,23.74089 -6.48659,51.43971 -29.28571,67.14286 -22.79911,15.70315 -52.26062,12.36694 -73.57143,-1.42858 -21.31081,-13.79551 -36.78571,-41.42856 -36.42857,-59.2857 z"
       id="path3873"
       inkscape:connector-curvature="0"
       sodipodi:nodetypes="zzzzzzz" />
    <path
       style="fill:none;stroke:#000000;stroke-width:3;stroke-linecap:butt;stroke-linejoin:miter;stroke-miterlimit:4;stroke-opacity:1;stroke-dasharray:none"
       d="m 442.85714,458.79075 c 0,0 0.0507,22.42508 2.85715,41.42857 22.09217,3.28921 34.10106,1.24267 57.14285,-0.71428 2.32751,-19.09981 -0.71428,-42.85714 -0.71428,-42.85714"
       id="path3881"
       inkscape:connector-curvature="0"
       sodipodi:nodetypes="cccc" />
    <path
       style="fill:none;stroke:#000000;stroke-width:3;stroke-linecap:butt;stroke-linejoin:miter;stroke-miterlimit:4;stroke-opacity:1;stroke-dasharray:none"
       d="m 472.85714,444.50504 1.42857,45.71428"
       id="path3879"
       inkscape:connector-curvature="0"
       sodipodi:nodetypes="cc" />
    <path
       style="fill:#ffffff;fill-opacity:1;stroke:#000000;stroke-width:3;stroke-miterlimit:4;stroke-opacity:1;stroke-dasharray:none"
       d="m 423.57143,396.6479 c -21.30429,14.55001 -24.28572,37.14285 -19.28571,47.14286 5,10.00001 7.39914,21.57576 24.28571,20.71428 16.88657,-0.86149 23.14635,-10.94476 45,-10.71428 21.85365,0.23048 25.28388,12.37177 38.57143,10.71428 13.28755,-1.6575 25.91525,-9.20788 30.71429,-23.57143 4.79904,-14.36356 6.04207,-28.54002 -15.71429,-42.85714 -21.75636,-14.31712 -82.26714,-15.97859 -103.57143,-1.42857 z"
       id="path3877"
       inkscape:connector-curvature="0"
       sodipodi:nodetypes="zzzzzzzz" />
    <path
       style="fill:#000000;fill-opacity:1;stroke:none"
       d="m 430.71429,366.64789 c 3.21428,-19.28571 70.53726,-28.04013 77.85715,-2.14285 7.31989,25.89727 -17.77464,49.75865 -39.28572,50 C 447.77463,414.7464 427.5,385.93361 430.71429,366.64789 z"
       id="path3875"
       inkscape:connector-curvature="0"
       sodipodi:nodetypes="zzzz" />
    <path
       style="fill:none;stroke:#000000;stroke-width:3;stroke-linecap:round;stroke-linejoin:miter;stroke-miterlimit:4;stroke-opacity:1;stroke-dasharray:none"
       d="m 212.14286,596.6479 c 0.37871,20.29059 2.55443,43.66153 17.5,52.5 14.94556,8.83846 22.58296,9.2225 33.21428,2.5 10.63133,-6.7225 16.72763,-20.46334 2.85714,-32.14286 -13.87049,-11.67952 -14.51276,-26.07508 -13.92857,-38.92857"
       id="path3894"
       inkscape:connector-curvature="0"
       sodipodi:nodetypes="czzzc" />
    <path
       style="fill:none;stroke:#000000;stroke-width:3;stroke-linecap:butt;stroke-linejoin:miter;stroke-miterlimit:4;stroke-opacity:1;stroke-dasharray:none"
       d="m 670,558.07647 c 0,0 3.42714,41.18869 -12.5,54.64286 -15.92713,13.45417 -11.31401,23.87478 -5,30.35713 6.31401,6.48236 28.4577,9.49628 41.07143,-7.14285 12.61373,-16.63913 17.11798,-23.71384 16.07142,-47.85714"
       id="path3896"
       inkscape:connector-curvature="0"
       sodipodi:nodetypes="czzzc" />
    <path
       style="fill:none;stroke:#000000;stroke-width:3;stroke-linecap:butt;stroke-linejoin:miter;stroke-miterlimit:4;stroke-opacity:1;stroke-dasharray:none"
       d="m 647.14286,634.50504 15,-7.85714"
       id="path3898"
       inkscape:connector-curvature="0" />
    <path
       style="fill:none;stroke:#000000;stroke-width:3;stroke-linecap:butt;stroke-linejoin:miter;stroke-miterlimit:4;stroke-opacity:1;stroke-dasharray:none"
       d="m 672.5,637.36218 -3.21428,10.35714"
       id="path3900"
       inkscape:connector-curvature="0" />
    <path
       style="fill:none;stroke:#000000;stroke-width:3;stroke-linecap:round;stroke-linejoin:miter;stroke-miterlimit:4;stroke-opacity:1;stroke-dasharray:none"
       d="m 256.07143,654.1479 -2.85714,-10.71429"
       id="path3902"
       inkscape:connector-curvature="0" />
    <path
       style="fill:none;stroke:#000000;stroke-width:3;stroke-linecap:round;stroke-linejoin:miter;stroke-miterlimit:4;stroke-opacity:1;stroke-dasharray:none"
       d="m 271.78571,638.43361 -9.64285,-3.92857"
       id="path3904"
       inkscape:connector-curvature="0" />
    <path
       style="fill:none;stroke:#000000;stroke-width:3;stroke-linecap:round;stroke-linejoin:miter;stroke-miterlimit:4;stroke-opacity:1;stroke-dasharray:none"
       d="m 383.40555,838.79075 c 0,0 14.97704,22.33492 25.71428,25 10.73724,2.66508 22.97939,-1.6888 29.28572,-8.57142 6.30633,-6.88262 6.48836,-16.17953 5,-25 -1.48836,-8.82047 -15.04333,-22.51795 -15.04333,-22.51795"
       id="path3935"
       inkscape:connector-curvature="0"
       sodipodi:nodetypes="czzzc" />
    <path
       style="fill:none;stroke:#000000;stroke-width:3;stroke-linecap:round;stroke-linejoin:miter;stroke-miterlimit:4;stroke-opacity:1;stroke-dasharray:none"
       d="m 394.28571,911.6479 c 0,0 19.49236,15.45155 29.87746,16.1327 10.3851,0.68115 17.95471,-4.37749 23.85985,-11.89031 5.90514,-7.51282 6.8614,-15.75333 4.74746,-25.88017 -2.11394,-10.12684 -18.78063,-30.84428 -18.78063,-30.84428"
       id="path3937"
       inkscape:connector-curvature="0"
       sodipodi:nodetypes="czzzc" />
    <path
       style="fill:none;stroke:#000000;stroke-width:3;stroke-linecap:round;stroke-linejoin:miter;stroke-miterlimit:4;stroke-opacity:1;stroke-dasharray:none"
       d="m 491.42857,875.93361 c 0,0 15.49319,19.54902 15.37509,29.32904 -0.1181,9.78003 -5.31735,16.49835 -11.80366,20.67096 -6.48631,4.17261 -12.63091,5.34668 -20.71429,2.85714 -8.08338,-2.48954 -22.14285,-20 -22.14285,-20"
       id="path3939"
       inkscape:connector-curvature="0"
       sodipodi:nodetypes="czzzc" />
    <path
       style="fill:none;stroke:#000000;stroke-width:3;stroke-linecap:round;stroke-linejoin:miter;stroke-miterlimit:4;stroke-opacity:1;stroke-dasharray:none;display:inline"
       d="m 549.94797,757.59882 c 0,0 14.97704,22.33492 25.71428,25 10.73724,2.66508 22.97939,-1.6888 29.28572,-8.57142 6.30633,-6.88262 6.48836,-16.17953 5,-25 -1.48836,-8.82047 -15.04333,-22.51795 -15.04333,-22.51795"
       id="path3935-3"
       inkscape:connector-curvature="0"
       sodipodi:nodetypes="czzzc" />
    <path
       style="fill:none;stroke:#000000;stroke-width:3;stroke-linecap:round;stroke-linejoin:miter;stroke-miterlimit:4;stroke-opacity:1;stroke-dasharray:none;display:inline"
       d="m 638.27302,750.80004 c 0,0 15.49319,19.54902 15.37509,29.32904 -0.1181,9.78003 -5.31735,16.49835 -11.80366,20.67096 -6.48631,4.17261 -12.63091,5.34668 -20.71429,2.85714 -8.08338,-2.48954 -22.14285,-20 -22.14285,-20"
       id="path3939-4"
       inkscape:connector-curvature="0"
       sodipodi:nodetypes="czzzc" />
    <path
       style="fill:none;stroke:#000000;stroke-width:3;stroke-linecap:round;stroke-linejoin:miter;stroke-miterlimit:4;stroke-opacity:1;stroke-dasharray:none;display:inline"
       d="m 556.30595,879.26334 c 0,0 15.34948,14.99577 26.40844,14.69505 11.05896,-0.30072 14.62163,3.34436 21.38508,-3.96288 6.76345,-7.30724 4.95988,-21.87062 1.16887,-29.97273 -3.79101,-8.10211 -14.4521,-15.6595 -14.4521,-15.6595"
       id="path3935-4"
       inkscape:connector-curvature="0"
       sodipodi:nodetypes="czzzc" />
    <path
       style="fill:none;stroke:#000000;stroke-width:3;stroke-linecap:round;stroke-linejoin:miter;stroke-miterlimit:4;stroke-opacity:1;stroke-dasharray:none;display:inline"
       d="m 609.3138,880.38523 c 0,0 10.36825,7.8142 19.50574,8.43637 9.13749,0.62218 13.87528,0.11687 16.45304,-4.42665 2.57776,-4.54351 4.45124,-10.06074 2.06704,-18.14947 -2.38421,-8.08873 -17.55308,-20.4208 -17.55308,-20.4208"
       id="path3937-2"
       inkscape:connector-curvature="0"
       sodipodi:nodetypes="czzzc" />
    <path
       style="fill:none;stroke:#000000;stroke-width:3;stroke-linecap:round;stroke-linejoin:miter;stroke-miterlimit:4;stroke-opacity:1;stroke-dasharray:none;display:inline"
       d="m 582.98518,951.6029 c 0,0 14.83212,-0.71847 22.59801,5.22742 7.7659,5.9459 10.54361,15.1416 10.00636,22.83538"
       id="path3939-9"
       inkscape:connector-curvature="0"
       sodipodi:nodetypes="czc" />
    <path
       style="fill:none;stroke:#000000;stroke-width:3;stroke-linecap:round;stroke-linejoin:miter;stroke-miterlimit:4;stroke-opacity:1;stroke-dasharray:none;display:inline"
       d="m 742.1174,858.75307 c 0,0 11.69405,18.54685 22.43129,21.21193 10.73724,2.66508 15.90832,-2.44641 20.19434,-7.05619 4.28603,-4.60978 6.23582,-12.13892 4.74746,-20.95939 -1.48836,-8.82047 -11.76033,-24.28572 -11.76033,-24.28572"
       id="path3935-4-5"
       inkscape:connector-curvature="0"
       sodipodi:nodetypes="czzzc" />
    <path
       style="fill:none;stroke:#000000;stroke-width:3;stroke-linecap:round;stroke-linejoin:round;stroke-miterlimit:4;stroke-opacity:1;stroke-dasharray:none;display:inline"
       d="m 784.56482,874.28406 c 0,0 6.61292,19.7447 14.2201,22.95123 7.60718,3.20653 17.95471,2.69357 23.85985,-2.79894 5.90514,-5.49251 7.11394,-15.24825 6.26268,-25.62763 -0.85126,-10.37938 -7.66895,-24.78336 -7.66895,-24.78336 0,0 9.37867,24.66465 15.7615,30.33682 6.38283,5.67217 15.25,3.75 15.25,3.75"
       id="path3937-2-2"
       inkscape:connector-curvature="0"
       sodipodi:nodetypes="czzzczc" />
    <path
       style="fill:none;stroke:#000000;stroke-width:3;stroke-linecap:round;stroke-linejoin:miter;stroke-miterlimit:4;stroke-opacity:1;stroke-dasharray:none;display:inline"
       d="m 726.15117,985.68923 c 0,0 9.89363,-5.7428 10.81618,-12.02316 0.92256,-6.28036 -0.16152,-15.70142 -6.80488,-21.69156 -6.64336,-5.99013 -21.98566,-11.5941 -21.98566,-11.5941"
       id="path3935-4-8"
       inkscape:connector-curvature="0"
       sodipodi:nodetypes="czzc" />
    <path
       style="fill:none;stroke:#000000;stroke-width:3;stroke-linecap:round;stroke-linejoin:miter;stroke-miterlimit:4;stroke-opacity:1;stroke-dasharray:none;display:inline"
       d="m 744.15365,932.89774 c 4.45907,7.67738 11.52913,19.73628 21.72875,20.71054 13.19506,0.18875 19.58626,-6.36656 20.89907,-14.80549 1.26884,-8.15625 -2.15515,-21.36483 -5.97645,-24.77205"
       id="path3937-2-4"
       inkscape:connector-curvature="0"
       sodipodi:nodetypes="ccsc" />
    <path
       style="fill:none;stroke:#000000;stroke-width:3;stroke-linecap:round;stroke-linejoin:miter;stroke-miterlimit:4;stroke-opacity:1;stroke-dasharray:none;display:inline"
       d="m 732.1783,981.44519 c 0,0 3.69142,9.96387 13.80774,12.40704 10.11664,2.44288 16.9231,0.51759 21.49796,-2.84724 4.57487,-3.36482 8.46508,-9.41105 9.34561,-15.852 0.88053,-6.44095 -1.91009,-14.59673 -4.65692,-20.46413"
       id="path3937-2-4-2"
       inkscape:connector-curvature="0"
       sodipodi:nodetypes="czzzc" />
    <path
       style="fill:none;stroke:#000000;stroke-width:3;stroke-linecap:round;stroke-linejoin:round;stroke-miterlimit:4;stroke-opacity:1;stroke-dasharray:none"
       d="m 818.75,998.86218 c 0,0 -5.93991,14.93092 -3.25,21.75002 2.69215,6.8248 14.25,10 14.25,10"
       id="path4177"
       inkscape:connector-curvature="0"
       sodipodi:nodetypes="csc" />
    <path
       style="fill:none;stroke:#000000;stroke-width:3;stroke-linecap:round;stroke-linejoin:round;stroke-miterlimit:4;stroke-opacity:1;stroke-dasharray:none"
       d="m 817.5,897.61218 c 0,0 5.16052,14.77322 9.75,18.5 4.58948,3.72678 9.0585,4.1462 14,4 4.9415,-0.1462 14.25,-5 14.25,-5"
       id="path4179"
       inkscape:connector-curvature="0"
       sodipodi:nodetypes="czzc" />
    <path
       style="fill:#000000;fill-opacity:1;stroke:none"
       d="m 836,1048.8622 c 0,0 13.40322,-31.7297 20.75,-48.5 0.98801,-2.2553 3.99063,-4.17303 6,-2.75002 1.70561,1.20789 1.37101,4.23612 0.25,6.00002 -9.83983,15.483 -27,45.25 -27,45.25 z"
       id="path4181"
       inkscape:connector-curvature="0"
       sodipodi:nodetypes="csssc" />
    <path
       style="fill:#000000;fill-opacity:1;stroke:none"
       d="m 854.5,1053.6122 c -2.61565,3.1984 -6.59519,2.2104 -4.25,-1.5 7.32117,-11.5832 10.41654,-22.092 18.75,-30.25 1.9204,-1.88 4.76689,-5.4951 7,-4 2.16441,1.4492 -0.0748,5.3151 -1,7.75 -4.15397,10.9329 -12.52346,18.2463 -20.5,28 z"
       id="path4227"
       inkscape:connector-curvature="0"
       sodipodi:nodetypes="ssssss" />
    <path
       style="fill:#000000;fill-opacity:1;stroke:none"
       d="m 873.5,1087.1122 c -3.74105,2.9708 -6.67171,0.871 -4,-4.75 2.87794,-6.0549 4.88226,-11.0082 11,-15.25 1.72433,-1.1956 5.3222,-2.0376 6.75,-0.5 1.24881,1.3448 0.71273,5.3726 -0.5,6.75 -4.79361,5.4446 -6.83404,8.6551 -13.25,13.75 z"
       id="path4229"
       inkscape:connector-curvature="0"
       sodipodi:nodetypes="ssssss" />
    <path
       style="fill:#000000;fill-opacity:1;stroke:none"
       d="m 861.25,1072.8622 c 0.29637,3.7047 12.59252,-15.0635 22.25,-24.75 1.0426,-1.0457 2.10986,-3.0495 1.25,-4.25 -1.1656,-1.6274 -4.39443,-1.4454 -6,-0.25 -8.83874,6.581 -13.69648,14.177 -18,23 -0.91624,1.8784 0.5,6.25 0.5,6.25 z"
       id="path4231"
       inkscape:connector-curvature="0"
       sodipodi:nodetypes="ssssss" />
    <path
       style="fill:#000000;fill-opacity:1;stroke:none"
       d="m 738.75,1040.6122 c 0,0 -10.35348,-27.4223 -13.25,-34 -2.89652,-6.5777 -10.66607,-4.1298 -6.25,4 4.41607,8.1298 19.5,30 19.5,30 z"
       id="path4233"
       inkscape:connector-curvature="0"
       sodipodi:nodetypes="czzc" />
    <path
       style="fill:#000000;fill-opacity:1;stroke:none"
       d="m 728.25,1058.1122 c 0,0 -4.98146,-9.5337 -6,-14.5 -0.45236,-2.2056 -0.76267,-4.3018 -1.25,-6.5 -1.66173,-7.4955 -6.73401,-15.0309 -9.5,-20 -2.76599,-4.9691 -8.0175,-1.004 -5.75,5 2.2675,6.004 22.5,36 22.5,36 z"
       id="path4235"
       inkscape:connector-curvature="0"
       sodipodi:nodetypes="csszzc" />
    <path
       style="fill:#000000;fill-opacity:1;stroke:none"
       d="m 712.75,1069.3622 c 0,0 -2.00788,-10.6701 -4.5,-16 -2.05603,-4.3972 -5.05322,-8.9489 -8.5,-13 -3.44678,-4.0511 -11.33419,-0.3518 -7.25,6.25 4.08419,6.6018 20.25,22.75 20.25,22.75 z"
       id="path4237"
       inkscape:connector-curvature="0"
       sodipodi:nodetypes="cszzc" />
    <path
       style="fill:#000000;fill-opacity:1;stroke:none"
       d="m 696.5,1081.1122 c 3.6102,1.5285 4.04097,-1.7776 2.5,-4.5 -1.54097,-2.7224 -5.45665,-5.9265 -8.25,-9.75 -2.79335,-3.8235 -9.16028,1.5222 -5.75,6.25 3.41028,4.7278 7.8898,6.4715 11.5,8 z"
       id="path4239"
       inkscape:connector-curvature="0"
       sodipodi:nodetypes="zzzzz" />
    <path
       style="fill:#000000;fill-opacity:1;stroke:#000000;stroke-width:1px;stroke-linecap:butt;stroke-linejoin:miter;stroke-opacity:1"
       d="m 621.54686,296.81858 c 9.15834,-0.61059 17.63375,5.57917 21.2132,13.08148 3.57946,7.50232 0.50877,20.20731 -3.53553,26.51651 -4.0443,6.3092 -9.223,10.38395 -16.97056,10.96015 -7.74756,0.57621 -19.89833,-3.93362 -24.04164,-10.25304 -4.14331,-6.31942 -4.54987,-15.26432 -1.06066,-22.62742 3.48922,-7.3631 15.23686,-17.06708 24.39519,-17.67768 z"
       id="path4241"
       inkscape:connector-curvature="0"
       sodipodi:nodetypes="zzzzzzz" />
    <path
       sodipodi:type="arc"
       style="fill:#ffffff;fill-opacity:1;stroke:none"
       id="path4243"
       sodipodi:cx="607.05115"
       sodipodi:cy="309.36972"
       sodipodi:rx="7.7781744"
       sodipodi:ry="3.3587573"
       d="m 614.82932,309.36972 a 7.7781744,3.3587573 0 1 1 -15.55635,0 7.7781744,3.3587573 0 1 1 15.55635,0 z"
       transform="matrix(0.7724197,-0.63511244,0.63511244,0.7724197,-53.73548,455.59864)" />
    <path
       style="fill:#000000;fill-opacity:1;stroke:#000000;stroke-width:1px;stroke-linecap:butt;stroke-linejoin:miter;stroke-opacity:1"
       d="m 308.29856,301.76833 c 8.04501,-0.0104 18.81545,6.51963 22.27386,13.78858 3.45841,7.26895 1.3613,15.75356 -2.82842,21.92031 -4.18972,6.16675 -12.18937,11.19289 -19.79899,10.96016 -7.60962,-0.23273 -15.93751,-5.61339 -19.44544,-12.37437 -3.50793,-6.76098 -2.71012,-16.19715 1.06066,-22.62742 3.77078,-6.43027 10.69332,-11.65683 18.73833,-11.66726 z"
       id="path4245"
       inkscape:connector-curvature="0"
       sodipodi:nodetypes="zzzzzzz" />
    <path
       sodipodi:type="arc"
       style="fill:#ffffff;fill-opacity:1;stroke:none"
       id="path4247"
       sodipodi:cx="300.16684"
       sodipodi:cy="314.1427"
       sodipodi:rx="8.8388348"
       sodipodi:ry="3.8890872"
       d="m 309.00567,314.1427 a 8.8388348,3.8890872 0 1 1 -17.67767,0 8.8388348,3.8890872 0 1 1 17.67767,0 z"
       transform="matrix(0.78269545,-0.62240488,0.62240488,0.78269545,-130.29633,255.08995)" />
  </g>
</svg>
